<svg width="13" height="8" viewBox="0 0 13 8" fill="none" xmlns="http://www.w3.org/2000/svg">
<path d="M6.16992 7.47461C5.99711 7.47461 5.84504 7.40559 5.7137 7.27446L0.356558 1.8082C0.232134 1.68396 0.169922 1.53212 0.169922 1.35268C0.169922 1.00068 0.439507 0.724609 0.798954 0.724609C0.978677 0.724609 1.13075 0.793627 1.24826 0.904057L6.16992 5.9286L11.0916 0.904057C11.2091 0.793628 11.3681 0.724609 11.5409 0.724609C11.9003 0.724609 12.1699 1.00068 12.1699 1.35268C12.1699 1.53212 12.1077 1.68397 11.9902 1.8082L6.62614 7.27446C6.50172 7.40559 6.34273 7.47461 6.16992 7.47461Z" fill="#222222"/>
</svg>
