<svg width="16" height="16" viewBox="0 0 16 16" fill="none" xmlns="http://www.w3.org/2000/svg">
<path d="M0 6.47136C0 2.90319 2.93142 0 6.53429 0C10.1372 0 13.0686 2.90319 13.0686 6.47136C13.0686 7.94729 12.5691 9.30157 11.7257 10.3882L15.7298 14.3781C15.9017 14.5484 16 14.7836 16 15.0431C16 15.5864 15.6151 16 15.0583 16C14.7963 16 14.5507 15.9108 14.3623 15.7243L10.3337 11.7263C9.261 12.4886 7.95906 12.9427 6.53429 12.9427C2.93142 12.9427 0 10.0395 0 6.47136ZM1.4002 6.47136C1.4002 9.27724 3.70113 11.556 6.53429 11.556C9.36745 11.556 11.6684 9.27724 11.6684 6.47136C11.6684 3.66548 9.36745 1.38672 6.53429 1.38672C3.70113 1.38672 1.4002 3.66548 1.4002 6.47136Z" fill="white" fill-opacity="0.6"/>
</svg>
